<?xml version="1.0" encoding="UTF-8" standalone="no" ?>
<!DOCTYPE svg PUBLIC "-//W3C//DTD SVG 1.1//EN" "http://www.w3.org/Graphics/SVG/1.1/DTD/svg11.dtd">
<svg xmlns="http://www.w3.org/2000/svg" xmlns:xlink="http://www.w3.org/1999/xlink" version="1.1" width="352" height="428.52177" viewBox="0 0 352 428.52177" xml:space="preserve">
<desc>Created with Fabric.js 4.6.0</desc>
<defs>
</defs>
<g transform="matrix(0.36 0 0 2.75 281.42 276.87)" id="G4teSM93aiOUZI580vrWN"  >
<filter id="SVGID_222" y="-22%" height="144%" x="-26%" width="152%" >
	<feGaussianBlur in="SourceAlpha" stdDeviation="0"></feGaussianBlur>
	<feOffset dx="-6" dy="2" result="oBlur" ></feOffset>
	<feFlood flood-color="rgb(38,35,35)" flood-opacity="1"/>
	<feComposite in2="oBlur" operator="in" />
	<feMerge>
		<feMergeNode></feMergeNode>
		<feMergeNode in="SourceGraphic"></feMergeNode>
	</feMerge>
</filter>
<path style="stroke: rgb(35,190,78); stroke-width: 0; stroke-dasharray: none; stroke-linecap: butt; stroke-dashoffset: 0; stroke-linejoin: miter; stroke-miterlimit: 4; fill: rgb(86,60,8); fill-rule: nonzero; opacity: 1;filter: url(#SVGID_222);" vector-effect="non-scaling-stroke"  transform=" translate(0, 0)" d="M -51.77994 -51.77994 L 51.77993 -51.77994 L 51.77993 51.77993 L -51.77994 51.77993 z" stroke-linecap="round" />
</g>
<g transform="matrix(1.34 0 0 1.34 278.71 84.6)" id="_j3CrN7BBqepHMK8FUkrB"  >
<filter id="SVGID_223" y="-23%" height="146%" x="-22%" width="144%" >
	<feGaussianBlur in="SourceAlpha" stdDeviation="0"></feGaussianBlur>
	<feOffset dx="-2" dy="3" result="oBlur" ></feOffset>
	<feFlood flood-color="rgb(38,35,35)" flood-opacity="1"/>
	<feComposite in2="oBlur" operator="in" />
	<feMerge>
		<feMergeNode></feMergeNode>
		<feMergeNode in="SourceGraphic"></feMergeNode>
	</feMerge>
</filter>
<path style="stroke: rgb(120,71,6); stroke-width: 0; stroke-dasharray: none; stroke-linecap: butt; stroke-dashoffset: 0; stroke-linejoin: miter; stroke-miterlimit: 4; fill: rgb(188,17,17); fill-rule: nonzero; opacity: 1;filter: url(#SVGID_223);" vector-effect="non-scaling-stroke"  transform=" translate(0, 0)" d="M 0 -51.77994 C 28.58252 -51.77994 51.77994 -28.582530000000002 51.77994 0 C 51.77994 28.58252 28.582530000000002 51.77994 0 51.77994 C -28.58252 51.77994 -51.77994 28.582530000000002 -51.77994 0 C -51.77994 -28.58252 -28.582530000000002 -51.77994 0 -51.77994 z" stroke-linecap="round" />
</g>
<g transform="matrix(0.18 0 0 0.75 201.33 379.31)" id="8ltckrRRRa1esBvXHDwjG"  >
<filter id="SVGID_224" y="-25%" height="150%" x="-26%" width="152%" >
	<feGaussianBlur in="SourceAlpha" stdDeviation="0"></feGaussianBlur>
	<feOffset dx="-6" dy="5" result="oBlur" ></feOffset>
	<feFlood flood-color="rgb(38,35,35)" flood-opacity="1"/>
	<feComposite in2="oBlur" operator="in" />
	<feMerge>
		<feMergeNode></feMergeNode>
		<feMergeNode in="SourceGraphic"></feMergeNode>
	</feMerge>
</filter>
<path style="stroke: rgb(35,190,78); stroke-width: 0; stroke-dasharray: none; stroke-linecap: butt; stroke-dashoffset: 0; stroke-linejoin: miter; stroke-miterlimit: 4; fill: rgb(190,185,92); fill-rule: nonzero; opacity: 1;filter: url(#SVGID_224);" vector-effect="non-scaling-stroke"  transform=" translate(0, 0)" d="M -51.77994 -51.77994 L 51.77993 -51.77994 L 51.77993 51.77993 L -51.77994 51.77993 z" stroke-linecap="round" />
</g>
<g transform="matrix(0.6 0 0 0.6 202.14 322.44)" id="FnoGAkCV4l9w5J6jOaHed"  >
<filter id="SVGID_225" y="-23%" height="146%" x="-23%" width="146%" >
	<feGaussianBlur in="SourceAlpha" stdDeviation="0"></feGaussianBlur>
	<feOffset dx="-3" dy="3" result="oBlur" ></feOffset>
	<feFlood flood-color="rgb(38,35,35)" flood-opacity="1"/>
	<feComposite in2="oBlur" operator="in" />
	<feMerge>
		<feMergeNode></feMergeNode>
		<feMergeNode in="SourceGraphic"></feMergeNode>
	</feMerge>
</filter>
<path style="stroke: rgb(120,71,6); stroke-width: 0; stroke-dasharray: none; stroke-linecap: butt; stroke-dashoffset: 0; stroke-linejoin: miter; stroke-miterlimit: 4; fill: rgb(252,134,29); fill-rule: nonzero; opacity: 1;filter: url(#SVGID_225);" vector-effect="non-scaling-stroke"  transform=" translate(0, 0)" d="M 0 -51.77994 C 28.58252 -51.77994 51.77994 -28.582530000000002 51.77994 0 C 51.77994 28.58252 28.582530000000002 51.77994 0 51.77994 C -28.58252 51.77994 -51.77994 28.582530000000002 -51.77994 0 C -51.77994 -28.58252 -28.582530000000002 -51.77994 0 -51.77994 z" stroke-linecap="round" />
</g>
</svg>