<?xml version="1.0" encoding="UTF-8" standalone="no" ?>
<!DOCTYPE svg PUBLIC "-//W3C//DTD SVG 1.1//EN" "http://www.w3.org/Graphics/SVG/1.1/DTD/svg11.dtd">
<svg xmlns="http://www.w3.org/2000/svg" xmlns:xlink="http://www.w3.org/1999/xlink" version="1.1" width="368" height="448" viewBox="0 0 368 448" xml:space="preserve">
<desc>Created with Fabric.js 4.6.0</desc>
<defs>
</defs>
<g transform="matrix(1 0 0 1 115 235)" id="uvDCJtivp-BFZoPkvCxQK"  >
<g style="" vector-effect="non-scaling-stroke"   >
		<g transform="matrix(0.24 0 0 1.21 63.01 134.05)" id="MJrsRjrKUWtHmNTuIPas-"  >
<filter id="SVGID_226" y="-25%" height="150%" x="-27%" width="154%" >
	<feGaussianBlur in="SourceAlpha" stdDeviation="0"></feGaussianBlur>
	<feOffset dx="7" dy="5" result="oBlur" ></feOffset>
	<feFlood flood-color="rgb(38,35,35)" flood-opacity="1"/>
	<feComposite in2="oBlur" operator="in" />
	<feMerge>
		<feMergeNode></feMergeNode>
		<feMergeNode in="SourceGraphic"></feMergeNode>
	</feMerge>
</filter>
<path style="stroke: rgb(35,190,78); stroke-width: 0; stroke-dasharray: none; stroke-linecap: butt; stroke-dashoffset: 0; stroke-linejoin: miter; stroke-miterlimit: 4; fill: rgb(86,64,19); fill-rule: nonzero; opacity: 1;filter: url(#SVGID_226);" vector-effect="non-scaling-stroke"  transform=" translate(0, 0)" d="M -51.77994 -51.77994 L 51.77993 -51.77994 L 51.77993 51.77993 L -51.77994 51.77993 z" stroke-linecap="round" />
</g>
		<g transform="matrix(1 0 0 1 0 0)" id="pyHo-M-RPUosDIRx19zr7"  >
<g style="" vector-effect="non-scaling-stroke"   >
		<g transform="matrix(0.36 0 0 2.68 -39.34 66.07)" id="vfcCAM-slYOnP_GpTUHzK"  >
<filter id="SVGID_227" y="-22%" height="144%" x="-26%" width="152%" >
	<feGaussianBlur in="SourceAlpha" stdDeviation="0"></feGaussianBlur>
	<feOffset dx="6" dy="2" result="oBlur" ></feOffset>
	<feFlood flood-color="rgb(38,35,35)" flood-opacity="1"/>
	<feComposite in2="oBlur" operator="in" />
	<feMerge>
		<feMergeNode></feMergeNode>
		<feMergeNode in="SourceGraphic"></feMergeNode>
	</feMerge>
</filter>
<path style="stroke: rgb(35,190,78); stroke-width: 0; stroke-dasharray: none; stroke-linecap: butt; stroke-dashoffset: 0; stroke-linejoin: miter; stroke-miterlimit: 4; fill: rgb(169,115,4); fill-rule: nonzero; opacity: 1;filter: url(#SVGID_227);" vector-effect="non-scaling-stroke"  transform=" translate(0, 0)" d="M -51.77994 -51.77994 L 51.77993 -51.77994 L 51.77993 51.77993 L -51.77994 51.77993 z" stroke-linecap="round" />
</g>
		<g transform="matrix(1.39 0 0 1.39 -38.4 -132.87)" id="UJoCbhf4d8abt76qZ2AAO"  >
<filter id="SVGID_228" y="-22%" height="144%" x="-22%" width="144%" >
	<feGaussianBlur in="SourceAlpha" stdDeviation="0"></feGaussianBlur>
	<feOffset dx="2" dy="2" result="oBlur" ></feOffset>
	<feFlood flood-color="rgb(38,35,35)" flood-opacity="1"/>
	<feComposite in2="oBlur" operator="in" />
	<feMerge>
		<feMergeNode></feMergeNode>
		<feMergeNode in="SourceGraphic"></feMergeNode>
	</feMerge>
</filter>
<path style="stroke: rgb(120,71,6); stroke-width: 0; stroke-dasharray: none; stroke-linecap: butt; stroke-dashoffset: 0; stroke-linejoin: miter; stroke-miterlimit: 4; fill: rgb(52,181,33); fill-rule: nonzero; opacity: 1;filter: url(#SVGID_228);" vector-effect="non-scaling-stroke"  transform=" translate(0, 0)" d="M 0 -51.77994 C 28.58252 -51.77994 51.77994 -28.582530000000002 51.77994 0 C 51.77994 28.58252 28.582530000000002 51.77994 0 51.77994 C -28.58252 51.77994 -51.77994 28.582530000000002 -51.77994 0 C -51.77994 -28.58252 -28.582530000000002 -51.77994 0 -51.77994 z" stroke-linecap="round" />
</g>
		<g transform="matrix(0.94 0 0 0.94 61.6 33.47)" id="pJ3nqwgxbn5ePWVVS61W_"  >
<filter id="SVGID_229" y="-22%" height="144%" x="-23%" width="146%" >
	<feGaussianBlur in="SourceAlpha" stdDeviation="0"></feGaussianBlur>
	<feOffset dx="3" dy="2" result="oBlur" ></feOffset>
	<feFlood flood-color="rgb(38,35,35)" flood-opacity="1"/>
	<feComposite in2="oBlur" operator="in" />
	<feMerge>
		<feMergeNode></feMergeNode>
		<feMergeNode in="SourceGraphic"></feMergeNode>
	</feMerge>
</filter>
<path style="stroke: rgb(120,71,6); stroke-width: 0; stroke-dasharray: none; stroke-linecap: butt; stroke-dashoffset: 0; stroke-linejoin: miter; stroke-miterlimit: 4; fill: rgb(44,123,33); fill-rule: nonzero; opacity: 1;filter: url(#SVGID_229);" vector-effect="non-scaling-stroke"  transform=" translate(0, 0)" d="M 0 -51.77994 C 28.58252 -51.77994 51.77994 -28.582530000000002 51.77994 0 C 51.77994 28.58252 28.582530000000002 51.77994 0 51.77994 C -28.58252 51.77994 -51.77994 28.582530000000002 -51.77994 0 C -51.77994 -28.58252 -28.582530000000002 -51.77994 0 -51.77994 z" stroke-linecap="round" />
</g>
</g>
</g>
</g>
</g>
<g transform="matrix(0.36 0 0 2.75 1235.61 562.09)" id="-HYRcTWdB_TgbSloRXn8s"  >
<filter id="SVGID_230" y="-22%" height="144%" x="-26%" width="152%" >
	<feGaussianBlur in="SourceAlpha" stdDeviation="0"></feGaussianBlur>
	<feOffset dx="-6" dy="2" result="oBlur" ></feOffset>
	<feFlood flood-color="rgb(38,35,35)" flood-opacity="1"/>
	<feComposite in2="oBlur" operator="in" />
	<feMerge>
		<feMergeNode></feMergeNode>
		<feMergeNode in="SourceGraphic"></feMergeNode>
	</feMerge>
</filter>
<path style="stroke: rgb(35,190,78); stroke-width: 0; stroke-dasharray: none; stroke-linecap: butt; stroke-dashoffset: 0; stroke-linejoin: miter; stroke-miterlimit: 4; fill: rgb(86,60,8); fill-rule: nonzero; opacity: 1;filter: url(#SVGID_230);" vector-effect="non-scaling-stroke"  transform=" translate(0, 0)" d="M -51.77994 -51.77994 L 51.77993 -51.77994 L 51.77993 51.77993 L -51.77994 51.77993 z" stroke-linecap="round" />
</g>
<g transform="matrix(1.34 0 0 1.34 1232.9 369.82)" id="pNAhCyKQwBVnZNTKLgGH-"  >
<filter id="SVGID_231" y="-23%" height="146%" x="-22%" width="144%" >
	<feGaussianBlur in="SourceAlpha" stdDeviation="0"></feGaussianBlur>
	<feOffset dx="-2" dy="3" result="oBlur" ></feOffset>
	<feFlood flood-color="rgb(38,35,35)" flood-opacity="1"/>
	<feComposite in2="oBlur" operator="in" />
	<feMerge>
		<feMergeNode></feMergeNode>
		<feMergeNode in="SourceGraphic"></feMergeNode>
	</feMerge>
</filter>
<path style="stroke: rgb(120,71,6); stroke-width: 0; stroke-dasharray: none; stroke-linecap: butt; stroke-dashoffset: 0; stroke-linejoin: miter; stroke-miterlimit: 4; fill: rgb(188,17,17); fill-rule: nonzero; opacity: 1;filter: url(#SVGID_231);" vector-effect="non-scaling-stroke"  transform=" translate(0, 0)" d="M 0 -51.77994 C 28.58252 -51.77994 51.77994 -28.582530000000002 51.77994 0 C 51.77994 28.58252 28.582530000000002 51.77994 0 51.77994 C -28.58252 51.77994 -51.77994 28.582530000000002 -51.77994 0 C -51.77994 -28.58252 -28.582530000000002 -51.77994 0 -51.77994 z" stroke-linecap="round" />
</g>
<g transform="matrix(0.18 0 0 0.75 1155.52 664.53)" id="fbDrjWoBMPKnuiW5vH1S7"  >
<filter id="SVGID_232" y="-25%" height="150%" x="-26%" width="152%" >
	<feGaussianBlur in="SourceAlpha" stdDeviation="0"></feGaussianBlur>
	<feOffset dx="-6" dy="5" result="oBlur" ></feOffset>
	<feFlood flood-color="rgb(38,35,35)" flood-opacity="1"/>
	<feComposite in2="oBlur" operator="in" />
	<feMerge>
		<feMergeNode></feMergeNode>
		<feMergeNode in="SourceGraphic"></feMergeNode>
	</feMerge>
</filter>
<path style="stroke: rgb(35,190,78); stroke-width: 0; stroke-dasharray: none; stroke-linecap: butt; stroke-dashoffset: 0; stroke-linejoin: miter; stroke-miterlimit: 4; fill: rgb(190,185,92); fill-rule: nonzero; opacity: 1;filter: url(#SVGID_232);" vector-effect="non-scaling-stroke"  transform=" translate(0, 0)" d="M -51.77994 -51.77994 L 51.77993 -51.77994 L 51.77993 51.77993 L -51.77994 51.77993 z" stroke-linecap="round" />
</g>
<g transform="matrix(0.6 0 0 0.6 1156.33 607.66)" id="QQj_Dx2PparEldStK1Zl8"  >
<filter id="SVGID_233" y="-23%" height="146%" x="-23%" width="146%" >
	<feGaussianBlur in="SourceAlpha" stdDeviation="0"></feGaussianBlur>
	<feOffset dx="-3" dy="3" result="oBlur" ></feOffset>
	<feFlood flood-color="rgb(38,35,35)" flood-opacity="1"/>
	<feComposite in2="oBlur" operator="in" />
	<feMerge>
		<feMergeNode></feMergeNode>
		<feMergeNode in="SourceGraphic"></feMergeNode>
	</feMerge>
</filter>
<path style="stroke: rgb(120,71,6); stroke-width: 0; stroke-dasharray: none; stroke-linecap: butt; stroke-dashoffset: 0; stroke-linejoin: miter; stroke-miterlimit: 4; fill: rgb(252,134,29); fill-rule: nonzero; opacity: 1;filter: url(#SVGID_233);" vector-effect="non-scaling-stroke"  transform=" translate(0, 0)" d="M 0 -51.77994 C 28.58252 -51.77994 51.77994 -28.582530000000002 51.77994 0 C 51.77994 28.58252 28.582530000000002 51.77994 0 51.77994 C -28.58252 51.77994 -51.77994 28.582530000000002 -51.77994 0 C -51.77994 -28.58252 -28.582530000000002 -51.77994 0 -51.77994 z" stroke-linecap="round" />
</g>
</svg>